<?xml version="1.0" standalone="no"?>
<!DOCTYPE svg PUBLIC "-//W3C//DTD SVG 20010904//EN"
 "http://www.w3.org/TR/2001/REC-SVG-20010904/DTD/svg10.dtd">
<svg version="1.0" xmlns="http://www.w3.org/2000/svg"
 width="1000.000000pt" height="1000.000000pt" viewBox="0 0 1000.000000 1000.000000"
 preserveAspectRatio="xMidYMid meet">
<metadata>
Created by potrace 1.11, written by Peter Selinger 2001-2013
</metadata>
<g transform="translate(0.000000,1000.000000) scale(0.100000,-0.100000)"
fill="#000000" stroke="none">
<path d="M2325 7690 c-4 -6 -11 -8 -16 -5 -5 4 -9 0 -9 -7 0 -9 -3 -9 -10 2
-9 13 -11 13 -20 0 -9 -13 -10 -13 -10 0 0 13 -1 13 -10 0 -9 -13 -10 -13 -10
0 0 13 -1 13 -10 0 -9 -13 -11 -13 -20 0 -8 12 -10 12 -10 1 0 -8 -7 -11 -20
-8 -11 3 -20 2 -20 -2 0 -4 -14 -5 -31 -3 -20 3 -34 0 -40 -9 -5 -8 -9 -9 -9
-4 0 6 -9 11 -19 11 -14 0 -17 -4 -11 -11 7 -8 1 -10 -20 -7 -17 2 -36 -1 -44
-7 -10 -8 -16 -9 -21 -1 -3 6 -11 8 -16 4 -5 -3 -7 -8 -5 -12 2 -4 -12 -7 -32
-7 -21 1 -40 -3 -43 -8 -4 -5 -18 -9 -32 -9 -14 0 -28 -6 -31 -13 -3 -8 -13
-11 -25 -8 -14 3 -21 1 -21 -8 0 -11 -2 -11 -10 1 -7 11 -10 11 -10 2 0 -7 -4
-10 -10 -7 -5 3 -10 2 -10 -4 0 -6 -7 -8 -15 -5 -8 4 -15 1 -15 -6 0 -6 -4 -8
-10 -5 -5 3 -10 1 -10 -5 0 -7 -7 -9 -15 -6 -9 3 -18 -1 -22 -10 -5 -13 -7
-13 -14 -2 -5 8 -9 9 -9 2 0 -10 -25 -23 -53 -28 -4 0 -11 -6 -15 -12 -4 -6
-15 -10 -25 -8 -9 1 -15 -2 -11 -7 3 -5 -4 -9 -16 -9 -12 0 -19 -4 -16 -8 2
-4 -4 -9 -15 -9 -10 -1 -25 -8 -32 -15 -8 -7 -37 -24 -65 -38 -28 -14 -51 -31
-52 -38 0 -7 -4 -11 -9 -8 -5 3 -14 -1 -21 -9 -7 -8 -17 -15 -22 -15 -15 0
-38 -27 -30 -35 4 -5 2 -5 -4 -2 -6 4 -22 -2 -34 -13 -12 -11 -27 -17 -33 -13
-6 4 -8 0 -4 -10 4 -11 1 -17 -8 -17 -8 0 -15 -4 -15 -10 0 -5 -7 -10 -16 -10
-9 0 -12 -5 -8 -12 5 -8 2 -9 -9 -5 -10 3 -17 2 -17 -3 0 -5 -45 -55 -100
-110 -55 -56 -98 -105 -95 -109 2 -5 -4 -11 -15 -14 -11 -3 -19 -11 -18 -19 2
-7 -3 -12 -9 -11 -12 3 -17 -9 -14 -29 0 -5 -6 -8 -14 -8 -13 0 -17 -6 -14
-27 0 -3 -6 -10 -15 -15 -9 -5 -14 -13 -11 -19 4 -5 -1 -9 -9 -9 -9 0 -16 -3
-15 -7 2 -15 -13 -53 -21 -53 -5 0 -12 -10 -16 -22 -3 -12 -15 -30 -25 -41
-10 -11 -16 -24 -13 -29 3 -4 -1 -8 -9 -8 -9 0 -13 -9 -12 -25 2 -14 -2 -23
-8 -22 -6 1 -12 -4 -13 -10 -1 -7 -2 -18 -3 -24 0 -5 -6 -7 -13 -3 -8 5 -9 2
-5 -9 3 -9 2 -19 -4 -22 -5 -4 -7 -11 -4 -16 4 -5 1 -9 -5 -9 -6 0 -8 -4 -5
-10 3 -5 1 -10 -5 -10 -6 0 -8 -4 -5 -10 3 -5 1 -10 -6 -10 -7 0 -9 -8 -6 -21
4 -14 1 -19 -7 -16 -8 3 -12 -3 -11 -16 1 -12 -3 -25 -9 -29 -6 -4 -12 -16
-12 -28 -3 -48 -4 -51 -16 -44 -8 5 -7 0 2 -11 9 -11 10 -16 3 -11 -12 6 -16
-8 -12 -40 0 -3 -8 -12 -18 -20 -17 -13 -17 -14 2 -7 18 6 18 5 6 -10 -7 -9
-11 -23 -8 -31 4 -11 1 -13 -10 -9 -13 5 -14 3 -4 -16 10 -17 9 -22 -3 -27 -8
-3 -12 -12 -9 -20 3 -8 2 -22 -2 -31 -5 -10 -10 -40 -12 -68 -3 -27 -10 -56
-16 -64 -9 -11 -9 -15 1 -19 10 -3 10 -7 0 -20 -10 -12 -10 -14 0 -8 6 4 12 2
12 -3 0 -6 -5 -11 -11 -11 -8 0 -8 -4 0 -14 9 -11 9 -16 0 -22 -8 -5 -9 -3 -4
6 5 8 4 11 -1 7 -6 -3 -7 -32 -4 -64 3 -32 3 -82 0 -110 -3 -29 -3 -53 0 -53
3 0 5 -15 4 -32 -1 -18 4 -36 10 -40 8 -5 7 -8 -1 -8 -7 0 -13 -7 -13 -15 0
-8 6 -15 13 -15 8 0 7 -4 -3 -10 -10 -6 -11 -10 -2 -10 6 0 12 -5 12 -11 0 -5
-6 -7 -13 -3 -9 6 -9 5 0 -7 14 -17 20 -80 10 -97 -6 -8 -3 -10 7 -6 11 4 16
0 16 -11 0 -9 -4 -14 -8 -11 -5 3 -9 -1 -9 -9 0 -8 4 -12 9 -9 4 3 8 -9 8 -26
0 -22 4 -29 12 -24 10 6 10 4 0 -8 -9 -11 -9 -17 -2 -20 6 -2 12 -18 12 -36 1
-17 4 -32 7 -32 6 0 11 -26 14 -67 0 -7 4 -10 9 -7 4 3 8 -6 8 -20 0 -14 5
-26 11 -26 5 0 7 -5 4 -10 -4 -6 -1 -18 7 -27 9 -12 9 -15 1 -9 -9 5 -11 2 -7
-8 3 -9 11 -13 17 -9 6 4 8 0 4 -10 -4 -10 -2 -17 4 -17 6 0 9 -7 5 -15 -3 -8
-1 -15 4 -15 6 0 10 -9 10 -21 0 -13 4 -18 13 -13 7 5 6 0 -3 -11 -8 -10 -10
-16 -4 -12 7 4 17 -6 25 -26 7 -17 18 -35 25 -39 7 -5 10 -18 6 -30 -3 -14 -2
-19 6 -14 12 7 16 -5 13 -33 -2 -7 2 -10 8 -6 6 3 11 -1 11 -9 0 -9 5 -16 10
-16 6 0 10 -8 10 -18 0 -10 9 -24 19 -32 11 -7 18 -17 15 -22 -3 -4 1 -8 8 -8
9 0 9 -3 -2 -10 -13 -8 -12 -10 3 -10 9 0 17 -5 17 -11 0 -5 4 -7 10 -4 6 3 7
-1 4 -9 -4 -10 1 -18 11 -22 13 -5 14 -9 3 -15 -9 -6 -6 -9 10 -9 13 0 20 -4
17 -10 -3 -5 3 -17 14 -27 11 -9 18 -20 15 -25 -3 -4 3 -8 12 -8 10 0 14 -3
11 -6 -3 -4 5 -15 18 -26 14 -11 25 -26 25 -34 0 -8 13 -22 28 -32 16 -9 27
-23 24 -31 -3 -8 0 -11 7 -7 6 4 14 0 17 -8 3 -9 12 -16 20 -16 8 0 13 -3 13
-7 -3 -20 2 -34 11 -28 6 3 13 -1 16 -10 4 -9 13 -14 21 -11 8 3 12 2 9 -2 -3
-5 11 -21 30 -38 19 -16 48 -41 64 -56 16 -16 35 -28 43 -28 8 0 18 -7 21 -16
3 -8 10 -12 16 -9 5 3 10 -2 10 -11 0 -10 3 -14 6 -11 4 3 18 -2 32 -13 13
-11 29 -17 35 -13 6 4 8 0 4 -10 -3 -9 -3 -16 1 -16 25 4 42 -2 36 -13 -5 -8
-2 -9 9 -5 12 4 17 1 17 -11 0 -13 2 -14 9 -4 6 11 10 10 15 -3 3 -9 13 -15
20 -12 8 3 17 -1 20 -10 4 -9 9 -13 13 -10 3 4 12 -1 20 -11 8 -9 11 -11 8 -4
-6 11 -3 12 13 3 12 -6 24 -15 27 -21 3 -5 13 -6 22 -3 11 4 14 3 9 -5 -4 -7
-1 -12 9 -12 9 0 13 -5 9 -11 -5 -8 -1 -8 14 0 24 13 35 14 28 3 -2 -4 4 -14
16 -21 11 -7 17 -8 14 -3 -3 6 5 5 18 -1 13 -7 22 -15 20 -19 -3 -4 9 -5 26
-3 16 2 30 -1 30 -6 0 -6 5 -7 10 -4 5 3 10 1 10 -6 0 -7 3 -10 6 -6 4 3 21 0
40 -8 24 -10 34 -11 38 -2 3 8 11 4 24 -10 14 -16 22 -19 31 -10 8 8 11 8 11
0 0 -6 14 -10 31 -9 19 1 33 -3 36 -12 5 -11 7 -11 14 0 5 7 9 8 9 2 0 -6 14
-10 30 -9 17 1 30 -2 30 -7 0 -4 5 -8 11 -8 5 0 8 4 5 9 -4 5 3 7 14 4 11 -3
20 -10 20 -17 0 -6 4 -6 9 3 6 9 11 10 15 2 5 -8 13 -8 27 -1 14 8 19 7 19 -1
0 -7 3 -9 7 -6 3 4 13 1 21 -6 13 -9 14 -9 8 1 -4 7 -1 12 9 12 9 0 13 -5 9
-11 -5 -8 -1 -8 14 0 30 16 36 14 21 -6 -13 -17 -13 -17 7 -1 19 17 21 17 39
0 14 -12 16 -13 7 -1 -10 13 -8 15 8 14 11 -1 23 -4 26 -8 10 -10 26 -9 20 2
-5 8 75 5 101 -4 6 -2 14 1 17 8 3 9 5 9 5 0 1 -7 6 -13 12 -13 5 0 8 3 6 8
-3 4 14 7 38 7 24 0 41 -3 38 -7 -2 -5 0 -8 6 -8 5 0 12 6 14 13 4 9 6 9 6 0
1 -7 6 -13 12 -13 5 0 7 5 3 11 -4 8 -1 8 13 1 11 -6 25 -7 33 -2 8 5 21 5 31
-1 23 -12 32 -11 23 2 -4 8 -1 8 13 1 10 -6 25 -7 31 -3 11 7 46 7 62 1 16 -6
46 -4 52 5 5 6 8 5 8 -2 0 -7 5 -13 11 -13 5 0 7 5 3 11 -5 8 -2 9 11 1 11 -6
30 -6 47 -1 16 4 26 4 23 -1 -8 -12 48 -7 57 5 5 6 8 5 8 -2 0 -7 5 -13 11
-13 5 0 7 5 3 11 -4 8 -1 8 13 1 12 -7 25 -7 36 -1 13 8 17 6 18 -8 0 -16 1
-16 9 2 5 11 9 14 9 8 1 -7 6 -13 12 -13 5 0 7 5 3 11 -5 8 -1 8 14 0 26 -14
35 -14 26 0 -5 8 -1 8 13 0 11 -6 23 -8 26 -5 9 10 57 12 63 3 3 -5 10 -9 15
-9 6 0 8 4 5 9 -5 8 75 5 101 -4 6 -2 14 1 17 8 3 9 5 9 5 0 1 -7 6 -13 12
-13 5 0 8 3 6 8 -3 4 14 7 38 7 24 0 41 -3 38 -7 -2 -5 0 -8 6 -8 5 0 12 6 14
13 4 9 6 9 6 0 1 -7 6 -13 12 -13 5 0 7 5 3 11 -4 8 -1 8 13 1 11 -6 25 -7 33
-2 8 5 21 5 31 -1 23 -12 32 -11 23 2 -5 8 -1 8 13 0 11 -6 23 -8 26 -5 9 10
57 12 63 3 3 -5 10 -9 15 -9 6 0 8 4 5 9 -5 8 75 5 101 -4 6 -2 14 1 17 8 3 9
5 9 5 0 1 -7 6 -13 12 -13 5 0 8 3 6 8 -3 4 14 7 38 7 24 0 41 -3 38 -7 -2 -5
0 -8 6 -8 5 0 12 6 14 13 4 9 6 9 6 0 1 -7 6 -13 12 -13 5 0 7 5 3 11 -4 8 -1
8 13 1 10 -6 25 -7 32 -3 12 8 93 5 118 -4 6 -2 14 1 17 8 3 9 5 9 5 0 1 -7 6
-13 12 -13 5 0 8 4 5 9 -5 8 53 5 82 -4 6 -3 12 0 12 5 0 6 5 10 11 10 5 0 7
-4 4 -10 -3 -5 -1 -10 4 -10 6 0 11 4 11 8 0 4 11 9 25 10 57 5 65 7 65 15 0
5 8 3 17 -4 11 -10 14 -10 9 -1 -4 7 -1 12 9 12 9 0 13 4 10 10 -3 5 0 7 8 4
8 -3 18 0 22 5 3 6 11 9 16 6 5 -4 9 -1 9 4 0 6 5 11 11 11 7 0 18 8 26 18 9
10 11 11 7 2 -4 -8 9 2 28 22 20 20 38 34 42 31 3 -4 6 -1 6 6 0 7 5 9 12 5 7
-4 8 -3 4 5 -9 13 18 43 29 33 5 -4 5 -2 2 5 -4 6 0 18 8 26 8 9 15 20 15 26
0 6 5 11 11 11 6 0 9 7 5 15 -3 8 -1 15 5 15 6 0 7 5 4 10 -3 6 -1 10 5 10 7
0 10 7 6 15 -3 8 -1 15 5 15 6 0 8 7 5 16 -3 8 -2 12 4 9 6 -3 10 -2 10 4 0 5
-6 12 -12 14 -9 4 -8 6 2 6 11 1 15 10 14 29 -1 15 4 33 10 41 8 11 8 13 -1 7
-7 -4 -13 -2 -13 3 0 6 5 11 12 11 9 0 9 3 0 12 -14 14 -16 32 -3 24 10 -7 9
20 -2 30 -11 12 -8 26 4 18 6 -3 3 5 -6 20 -10 14 -14 26 -10 26 4 0 1 8 -6
17 -11 13 -11 15 -1 9 7 -4 2 15 -13 43 -14 29 -23 57 -19 63 4 7 3 8 -4 4 -7
-4 -12 -1 -12 8 0 9 -4 16 -10 16 -5 0 -10 7 -10 15 0 8 -4 15 -10 15 -5 0
-10 4 -10 9 0 13 -50 67 -51 55 0 -5 -4 1 -9 14 -6 13 -18 22 -31 22 -15 0
-19 4 -15 16 3 8 2 13 -3 10 -4 -3 -16 1 -27 8 -10 8 -25 11 -33 8 -8 -3 -12
-1 -8 5 4 6 -12 16 -36 24 -23 7 -45 18 -49 24 -5 6 -8 5 -8 -4 0 -10 -3 -11
-13 -2 -8 6 -17 8 -21 4 -4 -4 -11 -1 -16 7 -7 11 -10 11 -10 2 0 -9 -7 -8
-25 4 -14 9 -25 12 -25 7 0 -6 -59 -9 -142 -8 -79 0 -151 -3 -160 -7 -9 -4
-19 -4 -22 0 -5 9 -89 8 -104 -2 -6 -3 -13 -3 -15 1 -6 10 -329 9 -345 -1 -6
-3 -13 -3 -16 2 -5 9 -89 8 -104 -2 -6 -3 -13 -3 -15 1 -6 10 -329 9 -345 -1
-6 -3 -13 -3 -16 2 -5 9 -89 8 -104 -2 -6 -3 -13 -3 -15 1 -6 10 -329 9 -345
-1 -6 -3 -13 -3 -16 2 -4 7 -73 8 -101 2 -5 -1 -12 -1 -15 0 -3 1 -59 3 -125
4 -66 1 -125 5 -132 9 -6 4 -19 4 -29 0 -12 -4 -15 -3 -10 5 11 19 -5 14 -20
-5 -12 -17 -12 -17 -11 0 2 18 -16 24 -90 29 -7 1 -13 6 -13 11 0 5 -6 7 -14
4 -7 -3 -23 1 -34 8 -10 8 -22 11 -26 8 -3 -3 -6 0 -6 7 0 7 -3 10 -7 7 -3 -4
-12 1 -20 11 -9 10 -12 11 -7 2 4 -8 -4 -4 -19 9 -14 12 -30 20 -35 17 -6 -3
-13 1 -16 10 -4 9 -13 14 -22 10 -8 -3 -13 -2 -11 2 5 7 -22 37 -33 37 -3 0
-4 3 -2 8 1 4 -1 6 -5 6 -28 -5 -45 2 -39 17 3 8 2 13 -2 10 -13 -8 -52 23
-52 40 0 8 -6 13 -12 12 -7 -2 -12 3 -10 10 1 6 -5 12 -14 12 -8 0 -12 5 -9
10 3 6 -1 10 -10 10 -9 0 -19 9 -22 20 -3 11 -10 20 -15 20 -5 0 -6 5 -3 10 3
6 -1 10 -10 10 -9 0 -13 5 -10 10 3 6 -1 13 -9 16 -9 3 -16 15 -16 26 0 10 -5
16 -10 13 -6 -3 -10 1 -10 9 0 9 -5 16 -11 16 -8 0 -7 6 2 17 10 11 10 14 2 9
-8 -4 -13 -1 -13 9 0 10 -5 13 -12 9 -8 -5 -9 -2 -5 9 4 12 1 17 -11 18 -10 0
-12 3 -5 6 10 3 9 8 -2 20 -8 8 -13 19 -10 24 4 5 1 9 -4 9 -6 0 -11 10 -11
23 0 13 -6 29 -12 36 -11 11 -10 12 2 6 12 -7 13 -6 3 7 -7 8 -14 27 -15 42
-1 14 -6 26 -11 26 -4 0 -6 4 -3 8 2 4 1 14 -4 22 -4 7 -4 24 1 37 4 12 5 22
1 20 -6 -2 -13 8 -11 16 6 20 5 36 -2 31 -13 -8 -11 10 4 25 10 11 10 13 0 7
-8 -4 -13 -1 -13 8 0 9 6 16 13 16 8 0 8 3 -2 9 -12 8 -12 12 -2 24 8 10 9 17
1 22 -14 9 -13 28 3 19 10 -6 10 -4 0 7 -14 14 -18 33 -5 25 4 -2 8 19 8 47 1
29 6 51 11 50 5 -1 8 14 7 33 -2 19 1 34 6 34 5 0 7 7 4 15 -4 8 -1 15 7 15 7
0 10 3 6 6 -11 12 45 142 85 193 10 13 15 27 12 32 -3 5 0 9 6 9 6 0 8 5 4 12
-5 7 -2 9 9 5 11 -4 14 -2 10 9 -3 8 1 14 11 14 9 0 15 3 15 8 -4 21 2 32 13
26 8 -5 9 -2 5 10 -4 9 -3 15 2 11 5 -3 19 8 31 25 12 17 27 27 33 24 7 -4 9
-4 5 1 -4 4 4 16 17 27 14 11 23 24 20 29 -4 5 1 6 10 3 9 -4 15 -3 13 2 -2 5
2 11 7 13 6 2 16 11 23 20 10 12 12 12 6 1 -7 -13 -5 -13 9 -1 9 7 14 17 11
22 -3 5 -2 9 3 8 27 -5 45 2 40 15 -4 10 -1 13 7 10 7 -3 20 1 27 9 8 7 20 12
28 9 8 -3 11 0 7 7 -5 7 2 11 17 11 14 0 30 7 37 15 7 8 16 12 21 9 5 -3 18 2
30 10 12 8 28 12 37 9 10 -4 13 -2 8 5 -5 8 3 12 26 14 18 0 38 2 43 3 6 2 16
3 23 4 8 1 10 6 6 14 -6 9 -4 9 7 1 8 -7 23 -8 34 -4 11 4 26 5 34 2 10 -4 12
-1 6 8 -6 10 -4 11 6 4 24 -14 51 -16 43 -2 -5 8 0 7 11 -2 11 -9 16 -10 11
-2 -4 6 -2 12 3 12 6 0 11 -5 11 -12 0 -9 3 -9 12 0 16 16 31 15 22 0 -5 -9
-2 -9 9 1 9 7 17 9 17 4 0 -5 7 -10 15 -10 8 0 12 4 9 9 -3 4 0 8 5 8 6 0 11
-5 11 -11 0 -8 4 -8 14 0 11 9 15 9 19 -1 4 -10 6 -10 6 1 1 11 4 11 18 0 11
-10 14 -10 9 -1 -4 6 -2 12 3 12 6 0 11 -6 11 -12 0 -9 3 -9 8 -3 8 11 43 12
60 1 6 -3 14 -1 18 5 4 8 9 7 15 -2 7 -12 10 -12 21 0 11 11 11 13 -1 6 -10
-6 -12 -4 -6 5 6 10 11 9 22 -5 9 -14 13 -15 13 -4 0 8 3 10 8 4 9 -13 35 -18
27 -5 -7 11 8 14 19 3 10 -10 66 -11 60 -1 -3 4 0 8 5 8 6 0 11 -4 11 -9 0
-10 26 -9 36 2 12 12 26 8 18 -5 -5 -9 -2 -9 9 1 9 7 17 9 17 4 0 -5 7 -10 15
-10 8 0 12 4 9 9 -3 4 0 8 5 8 6 0 11 -5 11 -11 0 -8 4 -8 14 0 11 9 15 9 19
-1 4 -10 6 -10 6 1 1 11 4 11 18 0 11 -10 14 -10 9 -1 -4 6 -2 12 3 12 6 0 11
-6 11 -12 0 -9 3 -9 8 -3 8 11 43 12 60 1 6 -3 14 -1 18 5 4 8 9 7 15 -2 7
-12 10 -12 21 0 11 11 11 13 -1 6 -10 -6 -12 -4 -6 5 6 10 11 9 22 -5 9 -14
13 -15 13 -4 0 12 2 12 10 -1 5 -8 10 -10 10 -4 0 11 40 11 59 0 5 -4 13 -1
17 5 4 8 9 7 15 -2 7 -12 10 -12 21 0 11 11 11 13 -1 6 -10 -6 -12 -4 -6 5 6
10 11 9 22 -5 9 -14 13 -15 13 -4 0 8 3 10 8 4 9 -13 35 -18 27 -5 -7 11 8 14
19 3 10 -10 66 -11 60 -1 -3 4 0 8 5 8 6 0 11 -4 11 -9 0 -10 26 -9 36 2 12
12 26 8 18 -5 -5 -9 -2 -9 9 1 9 7 17 9 17 4 0 -5 7 -10 15 -10 8 0 12 4 9 9
-3 4 0 8 5 8 6 0 11 -5 11 -11 0 -8 4 -8 14 0 11 9 15 9 19 -1 4 -10 6 -10 6
1 1 11 4 11 18 0 11 -10 14 -10 9 -1 -4 6 -2 12 3 12 6 0 11 -6 11 -12 0 -9 3
-9 8 -3 8 11 43 12 60 1 6 -3 14 -1 18 5 4 8 9 7 15 -2 7 -12 10 -12 21 0 11
11 11 13 -1 6 -10 -6 -12 -4 -6 5 6 10 11 9 22 -5 9 -14 13 -15 13 -4 0 8 3
10 8 4 9 -13 35 -18 27 -5 -3 5 -1 10 4 10 6 0 11 -4 11 -9 0 -10 26 -9 36 2
12 12 26 8 18 -5 -5 -9 -2 -9 9 1 9 7 17 9 17 4 0 -5 7 -10 15 -10 8 0 12 4 9
9 -3 4 0 8 5 8 6 0 11 -4 11 -8 0 -5 7 -9 15 -9 8 0 12 4 9 9 -3 4 0 8 5 8 6
0 11 -4 11 -9 0 -10 19 -9 36 2 6 3 14 3 18 0 10 -10 48 -14 42 -5 -3 5 1 9 9
9 8 0 12 -3 10 -7 -2 -3 5 -6 15 -6 10 0 16 4 14 8 -3 4 0 8 5 8 6 0 11 -4 11
-9 0 -10 26 -9 36 2 12 12 26 8 18 -5 -5 -9 -2 -9 9 1 9 7 17 9 17 4 0 -5 7
-10 15 -10 8 0 12 4 9 9 -3 4 0 8 5 8 6 0 11 -4 11 -8 0 -5 7 -9 15 -9 8 0 12
4 9 9 -3 4 0 8 5 8 6 0 11 -4 11 -9 0 -11 19 -9 39 3 8 5 16 4 21 -4 6 -10 9
-9 13 1 4 10 6 10 6 2 1 -7 6 -13 12 -13 5 0 8 4 5 8 -3 5 1 9 9 9 8 0 12 -3
10 -7 -2 -3 5 -6 15 -6 10 0 16 4 14 8 -3 4 -1 8 5 8 5 0 12 -6 14 -12 4 -10
8 -9 16 2 10 13 12 13 21 0 9 -13 11 -13 20 0 9 13 10 13 10 0 0 -13 1 -13 10
0 9 13 11 13 20 0 9 -13 10 -13 10 0 0 12 2 13 9 1 10 -16 34 -5 25 12 -3 7 2
3 11 -8 13 -15 19 -16 22 -7 4 10 9 8 19 -5 13 -17 14 -17 7 2 -6 17 -4 18 8
8 12 -10 18 -10 27 -1 7 7 12 8 12 3 0 -6 11 -11 25 -11 14 -1 23 1 20 5 -5
10 42 8 51 -2 10 -10 36 -9 30 1 -3 5 1 9 9 9 8 0 12 -4 9 -9 -7 -11 3 -10 27
2 15 9 19 7 19 -7 0 -11 3 -14 8 -7 4 6 17 10 30 9 12 -1 22 3 22 9 0 6 4 5 9
-2 9 -16 20 -15 40 1 12 9 13 9 7 0 -4 -8 -1 -13 9 -13 10 0 13 5 9 13 -6 9
-4 9 8 -1 13 -10 17 -10 21 0 4 10 6 10 6 -1 1 -11 4 -11 18 0 11 10 14 10 9
2 -4 -7 -2 -13 3 -13 6 0 11 5 11 11 0 6 7 3 16 -5 14 -14 34 -14 34 0 0 3 -4
2 -10 -1 -5 -3 -10 -1 -10 4 0 14 17 14 26 0 4 -8 9 -7 15 2 7 12 9 12 9 0 0
-11 3 -11 17 0 11 10 14 10 9 2 -4 -7 -3 -13 1 -13 5 0 15 6 22 13 11 10 12 9
6 -1 -8 -16 26 -13 37 3 4 5 10 2 14 -8 6 -17 7 -17 21 0 8 10 12 12 8 6 -8
-16 11 -17 20 -2 5 7 14 4 28 -8 11 -10 17 -13 14 -7 -4 7 0 15 9 18 9 3 12 2
9 -5 -9 -13 27 -8 37 6 5 6 8 5 8 -2 0 -15 36 -17 45 -3 3 6 12 10 18 10 7 0
6 -4 -3 -10 -11 -7 -2 -9 30 -7 25 1 51 6 59 11 9 6 12 5 7 -2 -4 -7 4 -10 24
-10 16 1 30 6 30 12 0 7 3 7 8 -1 4 -6 22 -10 39 -9 18 1 35 -3 37 -8 3 -7 5
-6 5 1 1 7 8 10 16 7 9 -4 15 0 16 7 0 8 4 5 9 -6 l9 -20 0 20 c1 12 4 16 9 9
4 -6 21 -11 37 -10 17 1 44 -2 62 -5 18 -4 32 -4 31 0 -2 19 3 31 12 26 6 -3
10 1 10 9 0 9 4 16 9 16 6 0 8 9 6 19 -2 12 1 18 8 15 7 -2 17 7 24 21 8 19 8
24 0 19 -7 -3 -1 4 13 16 14 12 18 19 10 15 -10 -4 -9 -2 2 8 14 11 15 16 5
26 -9 10 -8 11 7 5 14 -5 17 -4 12 4 -4 7 0 15 9 18 9 4 14 13 11 20 -3 8 -2
14 3 14 5 0 14 14 21 30 7 17 17 30 22 30 5 0 7 4 4 8 -7 12 29 64 38 55 4 -4
4 -1 1 8 -3 8 4 25 15 37 11 12 17 22 13 22 -4 0 0 7 10 14 10 8 18 18 18 23
-1 18 11 43 21 43 5 0 7 7 4 16 -3 8 -2 12 4 9 6 -3 10 1 10 9 0 9 5 16 11 16
5 0 7 5 4 10 -3 6 0 13 9 16 8 3 12 12 10 19 -3 7 5 20 18 29 12 9 18 16 13
16 -6 0 -3 5 5 10 12 8 12 10 1 10 -8 0 -4 8 10 21 13 11 17 18 9 14 -10 -4
-9 -2 3 8 9 8 17 22 17 31 0 10 4 15 9 11 5 -3 12 -1 16 5 3 5 1 10 -6 10 -7
0 -3 8 8 18 11 9 18 23 15 31 -3 8 0 11 7 7 7 -5 11 1 11 14 0 11 6 23 14 26
9 3 12 12 9 21 -4 10 -2 14 5 9 6 -3 13 -2 17 4 3 5 0 10 -7 10 -8 0 -9 3 -3
8 6 4 21 21 33 39 l22 31 -29 -2 c-16 -1 -29 0 -29 3 2 19 -4 24 -11 12 -8
-13 -12 -13 -27 0 -10 8 -15 9 -11 3 4 -8 -19 -11 -76 -10 -45 1 -94 -2 -109
-5 -22 -6 -26 -4 -20 9 5 15 4 15 -11 3 -12 -9 -17 -10 -17 -2 0 7 -5 9 -10 6
-6 -4 -8 -11 -5 -16 3 -5 -1 -6 -9 -3 -9 3 -16 10 -16 16 0 5 -5 6 -10 3 -6
-4 -8 -10 -5 -15 8 -13 -21 -6 -41 10 -10 8 -15 10 -11 4 4 -7 -2 -11 -18 -11
-14 0 -22 3 -19 8 3 5 1 9 -5 9 -5 0 -11 -6 -14 -12 -3 -10 -8 -9 -22 2 -10 8
-16 10 -12 3 10 -15 -55 -15 -65 1 -5 7 -8 6 -8 -3 0 -11 -3 -11 -17 0 -15 12
-16 12 -10 -5 6 -16 5 -17 -8 -6 -8 7 -15 9 -15 5 0 -4 -8 -1 -17 6 -11 10
-14 10 -9 2 4 -7 2 -13 -3 -13 -6 0 -11 6 -11 13 0 8 -3 8 -9 -2 -8 -12 -12
-12 -24 -2 -11 9 -17 9 -22 0 -6 -8 -10 -7 -16 2 -6 10 -9 11 -9 2 0 -7 -5
-13 -11 -13 -5 0 -7 6 -3 13 4 6 -3 3 -15 -7 -22 -20 -22 -20 -15 0 7 17 6 17
-9 5 -14 -11 -17 -11 -17 0 0 11 -2 11 -10 -1 -9 -13 -10 -13 -10 0 0 13 -1
13 -10 0 -8 -12 -11 -13 -19 -1 -7 11 -9 11 -14 0 -4 -11 -6 -11 -6 0 -1 11
-5 10 -16 -5 -15 -19 -15 -19 -8 1 7 19 6 19 -20 2 -18 -12 -25 -13 -21 -4 5
15 -31 17 -53 4 -8 -5 -13 -3 -13 5 0 10 -2 10 -9 -1 -7 -11 -9 -11 -14 0 -4
11 -6 11 -6 1 -1 -8 -6 -10 -13 -5 -17 10 -68 11 -68 1 0 -4 -5 -8 -11 -8 -5
0 -7 6 -3 13 6 9 4 9 -8 -1 -13 -10 -17 -10 -21 0 -4 10 -6 10 -6 1 -1 -7 -6
-13 -12 -13 -5 0 -8 4 -4 9 6 10 -33 6 -43 -4 -3 -2 -11 0 -19 6 -9 9 -13 8
-13 0 0 -6 -5 -11 -11 -11 -5 0 -8 4 -5 9 6 9 -46 7 -62 -3 -6 -3 -13 0 -15 6
-4 10 -6 10 -6 1 -1 -7 -6 -13 -12 -13 -5 0 -8 4 -5 8 3 5 -1 9 -9 9 -8 0 -15
-5 -15 -10 0 -5 -7 -4 -15 3 -10 9 -15 9 -15 1 0 -6 -5 -11 -11 -11 -5 0 -7 6
-3 13 5 8 2 8 -9 -2 -13 -10 -17 -10 -17 -1 0 10 -3 10 -14 1 -10 -9 -16 -9
-21 -1 -5 8 -11 8 -21 -1 -11 -9 -14 -8 -14 2 0 11 -2 11 -10 -1 -9 -13 -10
-13 -10 0 0 12 -2 12 -9 2 -6 -11 -12 -10 -26 5 -17 17 -18 17 -12 1 7 -19 -8
-25 -18 -8 -5 8 -11 7 -21 -1 -11 -9 -14 -9 -14 1 0 9 -4 9 -17 -1 -15 -12
-16 -12 -8 1 8 13 7 13 -8 1 -16 -12 -22 -8 -18 12 1 5 -3 6 -9 2 -6 -3 -7
-12 -3 -18 4 -7 -2 -5 -12 3 -11 9 -16 10 -11 3 4 -7 2 -13 -3 -13 -6 0 -11 6
-11 13 0 8 -4 7 -10 -3 -8 -12 -10 -12 -10 -1 0 10 -3 11 -14 2 -10 -9 -16 -9
-21 -1 -5 8 -11 8 -21 -1 -11 -9 -14 -8 -14 2 0 11 -2 11 -10 -1 -8 -12 -10
-12 -10 -1 0 11 -3 11 -15 1 -12 -10 -15 -10 -15 1 0 11 -2 11 -10 -1 -9 -13
-10 -13 -10 0 0 13 -1 13 -10 0 -9 -13 -10 -13 -10 0 0 13 -1 13 -10 0 -9 -13
-10 -13 -10 0 0 13 -1 13 -10 0 -9 -13 -10 -13 -10 0 0 13 -1 13 -10 0 -9 -13
-10 -13 -10 0 0 13 -1 13 -10 0 -9 -13 -10 -13 -10 0 0 13 -1 13 -10 0 -9 -13
-10 -13 -10 0 0 12 -2 13 -9 1 -7 -11 -9 -11 -13 0 -4 12 -7 12 -21 0 -14 -11
-17 -11 -17 0 0 11 -2 11 -10 -1 -6 -10 -10 -11 -10 -2 0 6 -5 12 -11 12 -5 0
-7 -6 -3 -12 5 -9 2 -9 -9 1 -14 11 -17 11 -17 0 0 -12 -2 -12 -9 0 -7 11 -9
11 -14 0 -4 -11 -6 -11 -6 -1 -1 9 -6 10 -20 2 -11 -5 -22 -6 -25 -2 -4 7 -86
8 -93 2 -8 -7 -30 -5 -40 3 -9 6 -13 5 -13 -3 0 -9 -4 -9 -17 1 -9 8 -14 9
-10 3 3 -6 0 -11 -8 -11 -8 0 -12 4 -9 8 2 4 -5 7 -16 6 -11 -1 -20 -6 -20
-12 0 -5 -5 -3 -10 5 -9 13 -11 13 -20 0 -9 -13 -10 -13 -10 0 0 13 -1 13 -10
0 -7 -11 -10 -11 -10 -2 0 9 -5 10 -19 2 -13 -7 -22 -7 -26 0 -3 5 -11 10 -16
10 -6 0 -8 -4 -5 -8 3 -5 -1 -9 -9 -9 -8 0 -15 5 -15 10 0 5 -7 4 -15 -3 -10
-9 -15 -9 -15 -1 0 6 -5 11 -11 11 -5 0 -7 -6 -3 -12 6 -10 5 -10 -8 -1 -8 7
-17 10 -20 8 -10 -10 -49 -14 -43 -4 4 5 2 9 -4 9 -5 0 -13 -5 -16 -10 -5 -8
-11 -8 -20 0 -10 8 -14 7 -18 -2 -4 -10 -6 -10 -6 1 -1 11 -4 11 -18 0 -11
-10 -14 -10 -9 -1 4 6 3 12 -3 12 -5 0 -12 -6 -14 -12 -4 -10 -6 -10 -6 0 -1
6 -6 12 -12 12 -5 0 -7 -6 -3 -12 5 -9 2 -9 -9 1 -14 11 -17 11 -17 0 0 -11
-2 -11 -10 1 -9 13 -11 13 -20 0 -8 -12 -10 -12 -10 -1 0 10 -3 11 -14 2 -10
-8 -16 -9 -21 -1 -3 5 -11 10 -16 10 -6 0 -7 -6 -3 -12 6 -10 5 -10 -7 -1 -11
9 -19 9 -26 2 -8 -8 -13 -8 -17 0 -4 6 -12 11 -17 11 -6 0 -7 -6 -3 -12 5 -9
2 -9 -9 1 -14 11 -17 11 -17 0 0 -11 -2 -11 -10 1 -9 13 -11 13 -20 0 -5 -9
-10 -10 -10 -3 0 13 -18 12 -39 -1 -11 -7 -13 -5 -8 9 7 17 6 17 -19 0 -15 -9
-23 -12 -20 -6 4 6 3 11 -3 11 -5 0 -13 -5 -16 -10 -4 -6 -12 -7 -18 -3 -7 4
-20 6 -31 4 -13 -2 -16 1 -10 11 4 7 -3 4 -16 -7 -13 -11 -20 -14 -16 -7 5 8
1 11 -13 9 -11 -2 -24 -6 -27 -10 -4 -4 -13 -2 -21 4 -10 9 -13 8 -13 -2 -1
-9 -4 -8 -11 4 -10 18 -11 18 -32 0 -11 -10 -17 -12 -13 -5 10 16 -25 13 -36
-3 -5 -6 -8 -5 -8 4 0 11 -3 11 -17 0 -9 -8 -14 -9 -10 -3 4 7 -2 12 -18 12
-14 0 -25 -6 -25 -12 0 -6 -4 -5 -9 3 -8 13 -12 13 -27 0 -11 -8 -15 -9 -10
-2 5 9 -1 12 -22 9 -16 -2 -35 -7 -42 -11 -9 -5 -11 -4 -6 3 10 16 -7 15 -23
0 -8 -7 -11 -8 -8 -2 4 7 -5 11 -24 12 -20 0 -27 -3 -22 -11 4 -7 -1 -6 -11 2
-15 13 -19 13 -27 0 -6 -9 -9 -10 -9 -2 0 8 -13 12 -35 11 -22 -1 -32 -5 -28
-12 5 -8 2 -8 -8 0 -18 14 -52 14 -61 0 -6 -8 -8 -8 -8 0 0 15 -51 15 -69 0
-12 -8 -13 -8 -7 2 4 7 2 12 -8 12 -8 0 -18 -5 -21 -10 -5 -8 -12 -7 -22 1
-12 10 -16 10 -24 -2 -5 -8 -9 -9 -9 -3 0 7 -19 11 -45 11 -25 0 -45 -4 -45
-9 0 -5 -5 -6 -10 -3 -6 4 -8 11 -5 16 4 5 4 9 1 9 -3 0 -8 -5 -11 -10z"/>
<path d="M6680 7690 c13 -9 7 -14 -12 -11 -4 0 -5 -5 -2 -13 3 -8 0 -17 -5
-21 -6 -3 -9 -11 -5 -16 3 -5 0 -8 -6 -7 -7 2 -14 -5 -15 -16 -2 -10 -13 -27
-24 -37 -25 -24 -28 -37 -4 -18 10 8 5 -1 -10 -19 -15 -19 -27 -40 -27 -48 0
-8 -4 -14 -9 -14 -8 0 -24 -37 -22 -52 1 -5 -6 -8 -14 -8 -9 0 -12 -6 -8 -17
5 -11 3 -14 -6 -8 -10 6 -11 2 -6 -15 6 -20 4 -22 -11 -16 -10 4 -15 4 -11 0
4 -4 2 -13 -4 -21 -6 -7 -8 -13 -3 -13 4 0 -1 -7 -12 -16 -10 -8 -12 -12 -4
-8 8 4 2 -8 -15 -27 -16 -18 -22 -27 -12 -20 15 12 17 12 11 -2 -3 -8 -12 -18
-21 -21 -9 -4 -13 -13 -9 -22 3 -8 2 -13 -2 -11 -6 4 -35 -19 -31 -25 5 -8
-14 -48 -22 -48 -6 0 -7 -4 -4 -10 3 -5 2 -10 -4 -10 -6 0 -7 -7 -4 -17 4 -11
3 -14 -5 -9 -7 4 -12 1 -12 -8 0 -9 -5 -16 -11 -16 -5 0 -8 -4 -4 -9 3 -5 -3
-17 -12 -27 -10 -10 -17 -20 -17 -23 1 -3 -1 -5 -6 -4 -4 1 -5 -9 -2 -22 3
-18 0 -25 -12 -25 -9 0 -16 -7 -16 -15 0 -8 -4 -15 -9 -15 -6 0 -8 -9 -6 -20
3 -13 0 -18 -7 -14 -8 5 -9 1 -5 -10 4 -9 3 -14 -2 -11 -5 3 -12 -4 -16 -15
-3 -11 -11 -20 -16 -20 -6 0 -8 -4 -4 -10 3 -5 -3 -18 -15 -30 -11 -11 -15
-20 -9 -20 6 0 3 -7 -5 -16 -9 -8 -16 -20 -16 -25 0 -6 -4 -8 -8 -5 -6 4 -7
-13 -3 -57 1 -5 5 -6 10 -3 5 3 12 -1 15 -10 3 -8 2 -12 -4 -9 -16 10 -11 0
15 -31 22 -26 30 -44 26 -66 0 -5 2 -7 7 -5 4 1 9 -2 11 -8 3 -5 11 -16 18
-24 8 -7 17 -27 20 -43 4 -21 8 -26 14 -16 6 9 9 7 9 -9 0 -13 5 -23 11 -23 5
0 7 -4 4 -10 -3 -5 -1 -10 5 -10 6 0 9 -4 6 -9 -3 -5 1 -12 10 -15 9 -4 14
-13 10 -22 -3 -8 -2 -13 3 -10 12 8 23 -22 14 -37 -3 -7 -3 -9 2 -5 10 10 34
-21 35 -44 0 -10 5 -18 10 -18 6 0 10 -6 10 -14 0 -8 5 -16 10 -18 6 -2 12
-13 13 -25 0 -12 4 -20 7 -18 7 4 24 -17 28 -35 2 -8 8 -17 13 -18 5 -2 7 -8
3 -13 -3 -5 2 -12 11 -15 13 -6 14 -8 3 -15 -10 -7 -8 -9 6 -9 11 0 16 -3 13
-7 -4 -3 1 -15 10 -26 13 -15 14 -19 3 -13 -11 6 -11 4 1 -6 9 -7 26 -32 38
-56 12 -23 26 -42 32 -42 6 0 7 -5 3 -12 -4 -6 1 -17 11 -25 11 -7 16 -13 12
-13 -4 0 -2 -10 5 -22 7 -13 11 -27 10 -31 -1 -5 2 -6 8 -2 5 3 13 -2 16 -12
3 -10 8 -25 12 -33 3 -8 5 -18 4 -22 -1 -4 8 -15 21 -25 12 -10 23 -25 25 -33
2 -8 9 -18 15 -22 7 -4 8 -8 2 -8 -5 0 -3 -6 5 -13 8 -7 15 -19 15 -27 0 -8 5
-14 12 -13 7 2 10 -6 8 -17 -2 -12 0 -18 5 -15 5 3 12 -6 16 -20 3 -14 10 -25
16 -25 5 0 6 -4 3 -10 -3 -5 -1 -10 6 -10 7 0 10 -3 6 -6 -3 -3 3 -15 13 -26
10 -11 16 -27 13 -35 -3 -8 0 -13 8 -11 7 2 13 -3 14 -10 0 -7 7 -17 15 -22
12 -8 12 -10 1 -10 -9 0 -6 -7 9 -20 15 -13 21 -26 17 -40 -5 -18 -3 -19 9 -9
8 7 14 8 13 3 -4 -22 2 -35 13 -28 7 5 8 3 3 -6 -5 -8 -1 -18 10 -27 11 -7 13
-13 7 -13 -7 0 -3 -9 8 -20 12 -12 18 -25 15 -30 -4 -6 1 -10 10 -10 9 0 13
-5 10 -10 -3 -6 1 -13 9 -16 9 -3 16 -14 16 -24 0 -11 5 -22 10 -25 6 -4 8
-11 5 -16 -4 -5 1 -9 9 -9 10 0 16 -9 16 -26 0 -14 4 -23 9 -19 5 3 12 1 16
-5 3 -5 1 -10 -5 -10 -6 0 -8 -5 -5 -10 4 -6 11 -8 16 -4 5 3 9 2 8 -3 -4 -25
2 -43 13 -37 8 5 9 2 5 -9 -4 -11 -1 -17 8 -17 8 0 14 -3 13 -7 -5 -15 24 -73
33 -67 5 3 9 -3 9 -13 0 -10 7 -27 15 -37 8 -10 12 -24 8 -30 -3 -6 -3 -8 2
-4 10 9 34 -21 35 -43 0 -13 -12 -16 -76 -15 -42 1 -81 -2 -87 -6 -6 -4 -17
-2 -24 4 -9 7 -13 7 -13 -1 0 -6 -7 -11 -16 -11 -8 0 -13 4 -10 9 3 4 -6 6
-19 3 -14 -2 -22 -8 -19 -13 3 -5 0 -9 -5 -9 -6 0 -11 5 -11 10 0 6 -5 10 -11
10 -5 0 -8 -3 -5 -8 2 -4 -11 -7 -30 -6 -19 1 -34 -3 -34 -8 0 -6 -7 -8 -15
-4 -8 3 -15 1 -15 -4 0 -5 -6 -7 -14 -4 -7 3 -16 -2 -19 -10 -4 -9 -13 -13
-22 -10 -8 3 -15 1 -15 -6 0 -6 -4 -8 -10 -5 -5 3 -10 2 -10 -4 0 -6 -7 -7
-17 -4 -9 4 -14 2 -11 -3 3 -5 0 -15 -8 -22 -8 -7 -14 -10 -14 -7 0 4 -14 -7
-31 -24 -17 -17 -35 -29 -40 -26 -5 4 -6 0 -4 -7 3 -8 -1 -22 -10 -33 -15 -20
-15 -20 -9 0 l6 20 -13 -20 c-6 -11 -19 -28 -27 -38 -9 -10 -17 -27 -19 -39
-2 -12 -11 -27 -21 -35 -9 -8 -11 -12 -4 -8 6 3 12 1 12 -4 0 -6 -4 -11 -9
-11 -5 0 -12 -7 -15 -16 -4 -10 -2 -13 7 -8 9 5 9 4 0 -7 -7 -7 -13 -21 -13
-30 0 -10 -6 -20 -12 -22 -10 -4 -10 -6 -1 -6 9 -1 10 -8 3 -27 -13 -33 -13
-37 3 -28 9 6 9 4 1 -7 -6 -8 -10 -24 -8 -37 3 -16 0 -21 -8 -16 -10 5 -10 4
-1 -6 6 -7 9 -19 6 -26 -3 -8 0 -14 5 -14 6 0 9 -12 6 -26 -3 -14 0 -32 6 -40
7 -7 9 -18 5 -24 -3 -5 -1 -10 4 -10 6 0 11 -6 11 -14 0 -8 6 -17 13 -19 8 -4
8 -6 -2 -6 -11 -1 -10 -5 5 -17 10 -8 13 -13 7 -9 -9 4 -11 1 -7 -9 3 -9 10
-14 14 -11 4 3 13 -9 20 -25 7 -16 16 -27 21 -24 5 3 6 -3 2 -12 -5 -14 -3
-16 12 -11 15 6 16 5 5 -8 -11 -13 -11 -16 1 -13 8 2 13 -3 11 -10 -1 -8 2
-11 8 -7 5 3 10 2 10 -4 0 -5 9 -13 20 -16 11 -4 18 -11 15 -16 -4 -5 1 -9 10
-9 9 0 13 -4 10 -10 -3 -6 1 -7 9 -4 9 4 18 -1 22 -10 3 -9 10 -13 15 -10 5 3
12 -2 15 -11 6 -13 8 -14 15 -3 7 11 9 11 9 -1 0 -7 6 -11 15 -8 8 4 17 1 21
-5 5 -7 2 -8 -6 -3 -8 5 -11 4 -7 -3 4 -5 18 -9 32 -7 14 1 25 -2 25 -7 0 -6
7 -8 15 -4 8 3 15 2 15 -2 0 -4 15 -7 33 -7 17 1 37 -2 44 -7 7 -5 14 -5 18 2
5 8 12 5 22 -7 8 -10 12 -12 8 -5 -7 13 -2 15 69 14 29 0 53 -6 58 -14 8 -10
9 -10 5 3 -4 12 3 15 37 13 25 -2 40 -7 38 -14 -1 -6 2 -9 8 -5 6 3 8 9 6 13
-5 8 160 6 181 -2 8 -3 11 -1 8 4 -8 13 1 13 27 -1 11 -6 18 -7 15 -2 -10 15
144 7 155 -9 8 -10 9 -10 5 3 -4 12 3 15 37 13 25 -2 40 -7 38 -14 -1 -6 2 -9
8 -5 6 3 8 9 6 13 -5 9 117 8 132 -1 6 -4 13 -3 17 3 3 5 3 10 -1 10 -3 0 0 8
7 17 8 10 9 14 2 10 -6 -4 -15 -2 -19 4 -4 8 -3 9 4 5 7 -4 12 -3 12 3 0 6 7
8 15 5 8 -3 14 -9 13 -12 -2 -20 3 -32 11 -27 6 3 8 -4 6 -15 -2 -13 1 -20 11
-20 8 0 13 -4 9 -9 -3 -5 1 -16 9 -24 8 -8 12 -17 9 -21 -4 -3 -1 -6 6 -6 7 0
9 -4 6 -10 -3 -5 -3 -10 2 -10 12 0 33 -51 26 -64 -4 -6 0 -6 8 1 13 10 16 10
16 -1 0 -24 25 -76 34 -70 5 3 9 -4 9 -15 0 -11 9 -26 21 -34 15 -11 17 -16 7
-20 -10 -4 -10 -6 0 -6 6 -1 12 -11 12 -23 0 -12 3 -18 7 -15 8 9 32 -24 33
-45 0 -9 5 -20 12 -24 7 -5 8 -3 3 6 -5 8 -4 11 3 6 6 -4 8 -14 5 -23 -4 -11
-3 -14 5 -9 8 5 10 2 6 -8 -3 -9 -1 -16 6 -16 6 0 8 -4 5 -10 -3 -5 -1 -10 5
-10 6 0 8 -4 5 -10 -3 -6 -1 -10 5 -10 6 0 8 -5 5 -10 -3 -5 1 -10 9 -10 10 0
13 -6 10 -15 -4 -8 -1 -15 5 -15 6 0 11 -7 11 -15 0 -8 5 -15 10 -15 6 0 10
-9 10 -20 0 -11 5 -20 10 -20 6 0 10 -7 10 -15 0 -8 3 -15 8 -15 4 0 13 -9 20
-21 11 -17 11 -20 0 -14 -7 3 -5 0 5 -8 14 -11 15 -16 5 -20 -9 -4 -8 -6 3 -6
10 -1 24 -18 33 -41 9 -22 21 -40 27 -40 6 0 9 -6 6 -12 -2 -7 5 -21 16 -31
14 -12 16 -17 6 -17 -10 -1 -9 -4 4 -11 9 -6 15 -14 12 -20 -4 -5 1 -9 9 -9
10 0 13 -7 11 -20 -2 -11 0 -18 6 -15 5 4 9 -1 9 -9 0 -9 5 -16 11 -16 5 0 7
-4 4 -10 -3 -5 -1 -10 6 -10 7 0 9 -3 6 -6 -4 -4 2 -15 14 -25 14 -12 16 -18
7 -22 -10 -4 -10 -6 0 -6 6 -1 12 -8 12 -16 0 -8 9 -19 20 -25 11 -6 17 -16
14 -25 -4 -8 -1 -15 6 -15 7 0 10 -7 6 -15 -5 -14 5 -20 27 -16 5 1 6 -3 3 -8
-9 -14 26 -78 49 -91 15 -8 15 -9 2 -6 -15 5 -16 3 -6 -16 10 -18 9 -20 -5
-15 -9 4 -16 2 -16 -4 0 -6 -7 -17 -15 -25 -8 -9 -15 -24 -15 -35 0 -11 -4
-18 -9 -15 -5 3 -14 -8 -20 -24 -9 -26 -8 -30 9 -30 10 0 22 -5 25 -10 4 -6
13 -7 23 -1 24 12 96 10 104 -3 6 -8 8 -8 8 1 0 6 15 11 35 11 24 0 33 -4 28
-11 -3 -7 4 -3 17 8 13 11 20 15 17 9 -4 -7 0 -15 9 -18 8 -3 13 -2 9 3 -7 13
108 9 117 -4 5 -7 8 -6 8 2 0 6 15 11 35 11 24 0 33 -4 28 -11 -3 -7 4 -3 17
8 13 11 20 15 17 9 -4 -7 0 -15 9 -18 8 -3 13 -2 9 3 -7 13 108 9 117 -4 5 -7
8 -6 8 2 0 6 15 11 35 11 24 0 33 -4 28 -12 -3 -6 4 -2 17 9 13 11 20 15 17 9
-4 -7 0 -15 9 -18 8 -3 13 -2 9 3 -7 13 108 9 117 -4 5 -7 8 -6 8 2 0 6 15 11
35 11 24 0 33 -4 28 -11 -3 -7 4 -3 17 8 13 11 20 15 17 9 -4 -7 0 -15 9 -18
8 -3 13 -2 9 3 -7 13 108 9 117 -4 5 -7 8 -6 8 2 0 6 15 11 35 11 19 0 32 -4
29 -9 -9 -15 1 -10 26 11 19 17 20 20 6 20 -9 0 -14 5 -11 10 3 6 1 10 -4 10
-6 0 -10 3 -9 8 3 13 -25 61 -33 56 -4 -2 -6 5 -4 16 2 11 0 18 -6 15 -5 -4
-9 1 -9 9 0 9 -5 16 -11 16 -5 0 -8 4 -5 9 3 5 0 14 -8 20 -8 7 -17 23 -20 37
-4 14 -11 22 -16 19 -6 -3 -10 1 -10 10 0 10 5 14 13 9 6 -4 2 3 -11 15 -12
12 -19 27 -16 33 5 8 1 9 -12 4 -10 -4 -15 -4 -11 0 4 4 1 14 -6 22 -10 13 -9
15 3 8 9 -4 8 -2 -2 7 -10 8 -15 17 -11 20 3 4 1 7 -6 7 -8 0 -11 6 -7 16 3 8
2 12 -4 9 -6 -3 -10 1 -10 9 0 9 -4 16 -10 16 -5 0 -7 6 -4 14 3 7 -2 16 -10
19 -9 4 -16 13 -16 22 0 8 -4 15 -10 15 -5 0 -10 7 -10 16 0 8 -7 22 -15 31
-8 8 -13 19 -10 24 4 5 1 9 -4 9 -6 0 -11 6 -11 14 0 8 -5 18 -12 22 -7 5 -8
3 -3 -6 5 -8 4 -11 -3 -6 -6 4 -9 13 -5 21 3 8 0 15 -6 15 -6 0 -11 5 -11 11
0 5 6 7 13 4 6 -4 1 2 -12 13 -13 10 -21 24 -17 30 3 6 1 14 -5 18 -8 5 -9 3
-4 -6 5 -9 4 -11 -3 -6 -7 4 -12 16 -12 27 0 10 -4 19 -10 19 -5 0 -10 7 -10
16 0 9 -5 12 -12 8 -7 -5 -8 -3 -3 6 5 8 1 18 -10 27 -11 7 -13 13 -7 13 7 0
3 9 -8 20 -12 12 -18 25 -15 30 4 6 -2 10 -12 10 -14 0 -15 2 -4 9 11 7 9 10
-8 16 -12 3 -18 11 -15 17 3 5 -3 16 -14 24 -14 10 -18 21 -15 36 3 13 2 20
-2 16 -10 -9 -37 41 -29 53 3 5 0 8 -8 7 -7 -2 -14 7 -16 20 -2 12 -8 20 -13
17 -5 -4 -9 6 -9 20 0 15 -4 24 -10 20 -5 -3 -10 1 -10 10 0 10 -5 13 -12 9
-8 -5 -7 0 2 11 9 11 10 16 3 11 -8 -4 -13 -2 -13 4 0 6 -7 18 -15 27 -8 8
-13 19 -10 24 4 5 0 9 -8 9 -10 0 -13 7 -10 20 4 14 0 20 -12 20 -11 0 -15 5
-11 15 3 8 1 15 -4 15 -6 0 -10 7 -10 15 0 8 -4 15 -10 15 -5 0 -10 5 -10 10
0 6 -11 28 -24 49 -14 21 -22 42 -18 47 4 4 1 4 -5 0 -12 -6 -18 5 -14 27 0 4
-4 7 -11 7 -6 0 -9 3 -5 6 3 3 -3 14 -14 25 -10 10 -16 25 -13 34 4 10 2 15
-7 13 -7 -2 -13 3 -14 10 0 8 -8 19 -17 26 -14 10 -15 15 -5 26 7 8 8 11 1 7
-11 -6 -42 49 -36 65 1 5 -1 7 -6 7 -4 -1 -14 -1 -22 0 -13 1 -13 2 0 11 10 6
11 10 3 10 -7 0 -13 7 -13 15 0 8 -5 15 -11 15 -6 0 -9 6 -6 14 3 8 -1 17 -9
20 -8 3 -14 12 -14 20 0 9 -10 25 -22 37 -13 12 -16 18 -8 14 10 -6 8 -1 -4
13 -11 12 -15 22 -11 22 4 0 -2 8 -13 19 -12 10 -19 21 -15 25 3 3 1 6 -6 6
-7 0 -9 5 -6 10 3 6 1 10 -5 10 -6 0 -9 4 -6 9 3 5 -1 12 -10 15 -9 4 -14 13
-10 21 3 9 0 15 -9 15 -8 0 -12 8 -10 20 2 11 -1 19 -8 17 -6 -1 -12 5 -12 13
0 8 -7 14 -14 12 -8 -2 -10 4 -6 18 4 12 2 20 -5 20 -6 0 -8 5 -5 10 3 6 1 10
-5 10 -6 0 -8 5 -5 10 3 6 -1 10 -10 10 -9 0 -13 5 -10 10 3 6 -1 13 -10 16
-13 6 -14 8 -3 15 10 7 10 9 0 9 -7 0 -17 12 -22 26 -7 16 -14 23 -22 18 -8
-5 -7 0 2 11 9 11 10 16 3 11 -9 -5 -13 0 -13 14 0 12 -4 18 -10 15 -5 -3 -10
1 -10 10 0 9 -9 29 -20 45 -11 15 -17 30 -13 34 3 3 -2 6 -12 6 -10 0 -15 3
-12 7 4 3 0 17 -8 30 -9 13 -12 23 -8 23 5 0 0 5 -9 11 -10 5 -18 17 -18 24 0
8 -5 15 -11 15 -6 0 -9 6 -6 14 3 8 -1 17 -9 20 -8 3 -14 12 -14 21 0 8 -5 15
-11 15 -5 0 -7 5 -4 10 3 6 1 10 -5 10 -6 0 -8 5 -5 10 3 6 1 10 -4 10 -6 0
-11 7 -11 16 0 9 -5 12 -11 8 -8 -5 -10 3 -7 24 4 25 2 29 -9 21 -10 -9 -13
-7 -13 10 0 11 -4 21 -10 21 -5 0 -10 8 -10 19 0 22 -23 44 -36 33 -4 -4 -3 0
3 9 10 12 8 18 -7 29 -10 7 -17 17 -14 22 3 4 0 8 -6 8 -6 0 -8 5 -5 10 3 6 1
10 -4 10 -6 0 -11 8 -11 19 0 22 -23 44 -36 33 -4 -4 -3 0 4 10 11 14 10 17
-9 23 -15 5 -18 10 -9 15 8 5 7 9 -5 14 -9 3 -13 10 -10 16 3 5 1 10 -4 10 -6
0 -11 9 -11 21 0 11 -4 17 -10 14 -5 -3 -10 4 -10 15 0 15 -5 20 -14 17 -10
-4 -12 0 -9 14 3 10 1 19 -3 19 -5 0 -16 15 -24 33 -7 17 -22 41 -32 51 -10
11 -18 28 -18 38 0 10 -4 18 -9 18 -5 0 -16 18 -25 40 -9 22 -20 40 -26 40 -5
0 -6 7 -3 17 4 11 3 14 -5 9 -7 -4 -12 -1 -12 8 0 9 -6 16 -12 16 -10 0 -10 2
0 9 11 7 10 9 -3 15 -9 3 -13 10 -10 16 3 5 0 10 -9 10 -8 0 -13 8 -12 18 2 9
-5 24 -15 33 -10 9 -16 19 -12 23 3 3 0 6 -7 6 -7 0 -11 3 -7 6 3 4 -4 15 -16
26 -12 11 -16 17 -9 13 19 -10 14 9 -7 25 -11 7 -18 17 -15 22 3 4 0 8 -6 8
-7 0 -10 6 -7 14 3 8 -1 17 -10 20 -9 4 -13 13 -9 22 3 8 2 13 -2 11 -4 -3
-16 7 -26 21 -11 14 -14 22 -7 17 10 -6 11 -3 2 14 -7 11 -17 21 -23 21 -6 0
-9 3 -5 6 3 4 -1 13 -9 21 -8 8 -12 19 -9 24 4 5 -1 9 -9 9 -10 0 -13 7 -11
20 2 11 0 18 -6 15 -5 -4 -9 1 -9 10 0 10 -5 13 -12 9 -7 -4 -10 -4 -6 1 4 4
-4 27 -17 50 -14 23 -22 45 -17 49 4 4 0 6 -8 4 -8 -2 -15 3 -16 10 -1 6 -3
15 -4 20 -1 4 -2 11 -1 15 1 5 -3 6 -9 2 -9 -6 -14 7 -11 28 0 4 -4 7 -10 7
-5 0 -7 5 -4 10 3 6 1 10 -5 10 -6 0 -19 18 -29 40 -10 22 -21 37 -26 32 -4
-4 -5 1 -2 11 4 9 3 17 -1 17 -4 0 -13 9 -20 21 -10 16 -10 19 -1 13 7 -4 4 5
-7 19 -10 15 -23 27 -27 27 -5 0 -5 5 -2 10 3 6 1 10 -5 10 -6 0 -8 5 -5 10 3
6 2 10 -3 10 -9 0 -25 37 -23 53 1 4 -6 7 -15 7 -8 0 -12 5 -9 10 3 6 1 10 -5
10 -6 0 -9 4 -5 9 3 5 1 12 -5 16 -6 4 -8 11 -5 16 4 5 0 12 -8 15 -14 5 -31
39 -28 56 1 5 -5 7 -11 5 -7 -1 -14 8 -16 21 -2 12 -8 22 -13 22 -6 0 -7 5 -4
10 3 6 1 10 -5 10 -6 0 -8 5 -5 10 3 6 -1 10 -10 10 -9 0 -13 5 -10 10 3 6 1
10 -4 10 -6 0 -11 5 -11 11 0 5 6 7 13 4 6 -4 1 3 -12 14 -14 13 -21 27 -17
36 3 9 2 14 -3 11 -11 -7 -41 37 -41 59 0 9 -4 13 -10 10 -5 -3 -10 3 -10 14
0 12 -4 21 -10 21 -5 0 -10 9 -10 21 0 11 -4 17 -10 14 -5 -3 -10 3 -10 15 0
12 -4 19 -8 16 -4 -2 -9 4 -9 15 -1 10 -9 26 -17 35 -9 9 -14 20 -11 25 4 5 0
6 -8 3 -11 -4 -14 2 -12 20 2 15 -1 24 -6 20 -5 -3 -9 2 -9 12 0 9 -10 25 -22
35 -11 11 -18 19 -13 19 4 0 2 7 -5 15 -7 8 -9 15 -4 15 5 0 1 7 -10 15 -10 8
-15 19 -10 26 4 8 3 10 -4 5 -11 -7 -17 14 -12 39 1 5 -2 7 -6 3 -9 -10 -33
22 -34 45 0 10 -4 15 -10 12 -5 -3 -10 1 -10 11 0 9 -8 23 -17 31 -10 8 -12
12 -5 8 17 -9 15 -2 -8 25 -12 13 -18 30 -16 37 3 7 0 12 -7 10 -7 -1 -11 6
-9 17 2 11 -1 15 -7 11 -6 -3 -11 1 -11 9 0 9 -5 16 -11 16 -5 0 -8 4 -4 9 3
5 -2 16 -10 24 -8 9 -15 20 -15 26 0 6 -10 11 -22 11 -19 0 -20 -2 -8 -10z"/>
<path d="M2385 6259 c-4 -6 -13 -8 -21 -5 -8 3 -14 2 -14 -3 0 -5 -12 -8 -27
-7 -16 0 -27 -4 -26 -10 1 -6 -10 -10 -25 -9 -32 2 -54 -4 -47 -14 2 -4 -14
-15 -36 -25 -21 -10 -37 -22 -34 -27 4 -5 -1 -6 -9 -3 -11 4 -16 0 -16 -11 0
-11 -5 -15 -15 -11 -9 3 -15 0 -15 -10 0 -8 -4 -13 -9 -9 -5 3 -12 -4 -16 -15
-4 -11 -11 -18 -16 -15 -5 4 -9 -3 -9 -15 0 -12 -4 -18 -10 -15 -5 3 -10 -1
-10 -9 0 -9 -5 -16 -12 -16 -6 0 -9 -3 -5 -6 3 -3 1 -11 -4 -18 -17 -20 -56
-105 -45 -99 6 4 5 -1 -3 -11 -13 -15 -13 -19 0 -27 8 -5 9 -9 4 -9 -6 0 -16
-10 -24 -21 -12 -20 -11 -21 4 -15 14 5 16 4 7 -7 -7 -8 -9 -17 -5 -20 3 -4 1
-7 -5 -7 -7 0 -8 -10 -2 -30 5 -19 5 -30 -1 -30 -6 0 -6 -7 0 -19 6 -10 11
-35 13 -55 1 -20 6 -36 10 -36 4 0 7 -3 7 -7 -4 -26 2 -43 14 -37 8 5 8 2 -2
-9 -9 -11 -10 -17 -2 -17 6 0 11 -5 11 -11 0 -7 8 -18 18 -26 9 -8 11 -11 4
-8 -11 6 -11 3 0 -14 7 -12 17 -21 21 -21 5 0 7 -7 4 -14 -4 -11 -1 -13 10 -9
11 4 14 2 9 -5 -4 -7 -2 -12 4 -12 6 0 8 -4 5 -10 -3 -5 -1 -10 5 -10 16 0 40
-26 32 -35 -4 -4 -2 -6 3 -5 23 5 34 -1 40 -21 5 -16 9 -18 15 -9 6 9 10 6 15
-10 6 -18 9 -20 16 -9 6 10 9 11 9 2 0 -7 7 -13 15 -13 8 0 15 -5 15 -11 0 -5
5 -7 10 -4 6 3 10 2 10 -4 0 -6 6 -8 14 -5 8 3 17 1 21 -5 3 -6 19 -11 36 -11
16 0 29 -4 29 -9 0 -14 29 -21 36 -9 5 7 2 8 -6 3 -9 -6 -11 -4 -6 4 6 10 12
9 24 -1 10 -8 24 -14 32 -13 8 0 18 -4 22 -10 5 -6 8 -5 8 3 0 7 5 10 10 7 6
-3 10 -1 10 6 0 8 4 8 15 -1 8 -7 15 -8 15 -2 0 11 50 9 70 -3 9 -6 12 -4 8 7
-4 8 0 15 8 15 7 0 11 -4 8 -9 -3 -4 9 -8 26 -8 20 0 29 4 24 11 -3 6 6 3 22
-7 15 -11 25 -13 21 -6 -9 14 18 12 42 -2 11 -7 13 -5 9 6 -4 8 0 15 8 15 7 0
11 -4 8 -9 -3 -4 9 -8 26 -8 20 0 29 4 24 11 -3 6 6 3 22 -7 15 -11 25 -13 20
-6 -5 9 1 11 28 6 26 -4 36 -2 36 8 0 8 3 9 8 3 4 -6 26 -11 50 -13 33 -2 41
1 36 10 -6 9 -3 9 9 -1 9 -7 17 -11 17 -7 0 3 12 1 26 -4 16 -7 23 -7 19 0 -9
14 8 12 24 -2 11 -11 12 -10 7 0 -6 10 -1 11 18 6 18 -4 26 -2 26 7 0 9 3 10
8 4 4 -6 26 -11 50 -13 33 -2 41 1 36 10 -6 9 -3 9 9 -1 9 -7 17 -11 17 -7 0
3 12 1 26 -4 16 -7 23 -7 19 0 -9 14 8 12 24 -2 11 -11 12 -10 7 0 -6 10 -1
11 18 6 18 -4 26 -2 26 7 0 11 3 11 10 -1 5 -8 10 -11 10 -7 0 4 10 3 21 -4
17 -9 20 -8 14 2 -6 9 -3 11 8 6 9 -3 19 -2 23 4 4 6 11 6 20 -2 8 -6 14 -8
14 -4 0 4 8 1 17 -6 14 -12 16 -12 11 2 -4 9 -1 16 8 16 7 0 11 -4 8 -9 -3 -4
9 -8 26 -8 20 0 29 4 24 11 -3 6 6 3 22 -7 15 -11 25 -13 21 -6 -9 14 18 12
42 -2 11 -7 13 -5 9 6 -4 8 0 15 8 15 7 0 11 -4 8 -9 -3 -4 9 -8 26 -8 20 0
29 4 24 11 -3 6 6 3 22 -7 15 -11 25 -13 20 -6 -6 10 0 11 25 7 18 -3 37 -9
42 -12 6 -3 7 -1 3 5 -10 16 7 15 23 0 11 -11 12 -10 7 0 -6 10 -1 11 18 6 18
-4 26 -2 26 7 0 11 3 11 10 -1 5 -8 10 -11 10 -7 0 4 10 3 21 -4 17 -9 20 -8
14 2 -6 9 -3 11 8 6 9 -3 19 -2 23 4 4 6 14 3 27 -8 20 -17 20 -17 14 2 -7 20
-7 20 8 1 8 -11 15 -15 15 -9 0 16 28 24 36 11 5 -7 2 -8 -6 -3 -9 6 -11 4 -5
-4 5 -9 11 -9 17 -3 7 7 19 7 35 1 16 -6 22 -5 18 1 -9 14 8 12 24 -2 11 -11
12 -10 7 0 -6 10 -1 11 18 6 18 -4 26 -2 26 7 0 11 3 11 10 -1 5 -8 10 -11 10
-7 0 4 10 3 21 -4 17 -9 20 -8 14 2 -6 9 -3 11 8 6 9 -3 19 -2 23 4 4 6 14 3
27 -8 20 -17 20 -17 13 1 -7 20 -7 20 15 0 12 -10 19 -14 16 -8 -4 7 0 15 9
18 8 3 13 2 10 -3 -3 -5 5 -11 19 -13 13 -3 22 -1 19 3 -8 13 10 11 24 -3 9
-9 12 -9 12 1 0 10 4 10 13 3 6 -5 27 -9 45 -7 18 1 35 -2 39 -8 4 -6 1 -7 -8
-2 -8 5 -10 4 -6 0 11 -13 38 -15 31 -3 -4 6 1 6 13 -1 11 -6 23 -7 27 -4 3 3
6 1 6 -5 0 -6 7 -9 17 -5 12 5 14 3 8 -7 -6 -9 -4 -11 5 -5 7 4 16 2 21 -6 6
-11 9 -11 9 -1 0 10 5 9 23 -2 12 -7 30 -12 40 -11 15 3 16 1 5 -13 -8 -9 -8
-13 -1 -9 6 4 14 1 16 -5 4 -9 6 -9 6 -1 1 8 7 8 26 0 14 -7 25 -15 25 -19 0
-5 9 -8 20 -8 12 0 20 -7 20 -17 0 -9 3 -13 6 -10 4 3 16 1 28 -5 11 -7 25
-11 31 -9 5 1 7 0 3 -4 -8 -9 16 -35 32 -35 6 0 13 -7 17 -16 3 -8 17 -20 30
-25 13 -5 23 -12 21 -16 -2 -5 12 -24 31 -43 18 -19 30 -29 26 -21 -5 9 -4 12
2 8 6 -4 16 -20 23 -37 7 -16 16 -30 21 -30 5 0 9 -10 9 -22 0 -19 2 -20 10
-8 9 13 10 13 11 0 1 -8 1 -18 0 -22 0 -5 3 -8 9 -8 5 0 10 -7 10 -15 0 -8 5
-15 11 -15 6 0 9 -6 6 -14 -3 -7 6 -25 19 -39 25 -27 32 -43 13 -31 -8 4 -8 0
0 -15 7 -11 15 -21 20 -21 5 0 7 -11 6 -25 -2 -14 1 -23 5 -20 5 3 11 1 15 -5
3 -5 0 -10 -7 -10 -8 0 -9 -3 -3 -8 10 -7 17 -27 18 -49 0 -7 5 -13 10 -13 5
0 4 -7 -3 -15 -10 -12 -10 -15 0 -15 7 0 10 -8 7 -20 -3 -11 -2 -22 2 -24 4
-3 8 -21 9 -42 2 -20 5 -41 8 -45 3 -5 0 -18 -7 -30 -6 -12 -7 -19 -1 -15 6 3
9 -5 8 -19 0 -14 -5 -25 -9 -25 -4 0 -3 -9 3 -20 6 -12 7 -27 2 -37 -4 -10 -7
-28 -7 -40 1 -12 -4 -24 -13 -28 -11 -4 -12 -8 -2 -20 10 -12 10 -18 0 -30
-10 -12 -10 -15 1 -15 12 0 12 -2 0 -9 -8 -5 -11 -16 -8 -26 5 -11 3 -14 -5
-9 -7 5 -9 2 -5 -9 3 -9 -1 -18 -10 -21 -11 -5 -12 -10 -5 -19 11 -13 -9 -52
-21 -40 -4 3 -5 -4 -2 -16 2 -11 -1 -21 -6 -21 -6 0 -8 -4 -4 -9 3 -5 -1 -15
-8 -23 -7 -7 -19 -28 -26 -45 -7 -18 -17 -30 -22 -28 -4 3 -6 -4 -4 -15 2 -11
0 -18 -4 -16 -4 3 -13 -6 -19 -19 -7 -14 -16 -25 -22 -25 -6 0 -8 -4 -5 -10 3
-5 -1 -10 -9 -10 -10 0 -13 -6 -9 -17 4 -9 2 -14 -3 -11 -5 2 -20 -7 -34 -20
-14 -14 -18 -21 -10 -17 13 8 13 7 1 -8 -8 -10 -16 -15 -18 -13 -3 2 -20 -11
-39 -30 -18 -20 -38 -32 -44 -29 -6 4 -10 3 -9 -2 1 -4 1 -14 0 -22 -1 -11 -4
-11 -18 0 -9 8 -14 9 -11 4 10 -16 -5 -34 -30 -38 -12 -2 -25 -7 -29 -12 -5
-4 -2 -5 6 0 9 5 12 4 7 -3 -4 -7 -16 -12 -27 -12 -10 0 -19 -5 -19 -11 0 -5
-4 -7 -10 -4 -5 3 -10 1 -10 -5 0 -6 -4 -8 -10 -5 -5 3 -10 1 -10 -5 0 -6 -4
-8 -10 -5 -5 3 -10 1 -10 -5 0 -6 -4 -9 -9 -6 -4 3 -16 -1 -27 -8 -10 -8 -24
-12 -31 -9 -7 3 -13 0 -13 -6 0 -6 -11 -11 -25 -11 -14 0 -25 -6 -25 -12 0 -9
-4 -8 -10 2 -7 11 -10 11 -10 2 0 -7 -4 -10 -10 -7 -5 3 -10 1 -10 -5 0 -8 -6
-7 -21 1 -12 6 -19 7 -15 1 3 -5 -1 -13 -10 -16 -10 -4 -13 -2 -8 7 6 9 5 9
-7 0 -12 -10 -18 -10 -29 0 -10 9 -11 9 -6 0 5 -10 -9 -13 -58 -13 -46 0 -66
-4 -66 -12 0 -9 -2 -10 -8 -2 -4 7 -20 12 -37 12 -16 0 -33 -5 -37 -12 -6 -8
-8 -8 -8 1 0 16 -150 17 -150 0 0 -9 -2 -9 -8 1 -5 7 -26 12 -54 11 -24 -1
-51 2 -58 6 -10 6 -12 4 -6 -10 5 -15 4 -16 -9 -5 -12 10 -18 10 -32 -1 -9 -8
-14 -9 -10 -2 5 8 -14 11 -68 12 -53 0 -75 -3 -75 -12 0 -9 -2 -9 -8 0 -9 14
-51 14 -69 1 -7 -6 -14 -4 -19 3 -5 8 -3 9 6 4 8 -5 11 -4 7 3 -8 12 -49 4
-59 -12 -6 -8 -8 -8 -8 0 0 16 -90 17 -90 1 0 -9 -2 -9 -8 -1 -9 15 -65 15
-74 0 -6 -8 -8 -8 -8 1 0 16 -150 17 -150 0 0 -9 -2 -9 -8 0 -9 14 -51 14 -69
1 -6 -5 -14 -5 -18 2 -9 14 -45 13 -45 -2 0 -9 -2 -10 -8 -2 -9 15 -64 15 -55
0 3 -6 -2 -3 -13 6 -18 15 -23 16 -47 3 -15 -8 -25 -10 -22 -5 4 6 -3 10 -14
10 -10 0 -22 -6 -24 -12 -4 -10 -6 -10 -6 0 -1 6 -10 12 -22 12 -13 0 -18 -4
-13 -12 4 -7 -1 -5 -12 4 -18 15 -23 16 -47 3 -15 -8 -25 -10 -22 -6 7 12 -97
11 -112 -1 -7 -6 -14 -5 -19 3 -5 8 -3 9 6 4 8 -5 11 -4 7 3 -8 12 -49 4 -59
-12 -6 -8 -8 -8 -8 0 0 16 -90 17 -90 1 0 -9 -2 -9 -8 -1 -4 7 -20 12 -37 12
-16 0 -33 -5 -37 -12 -6 -8 -8 -8 -8 1 0 16 -150 17 -150 0 0 -9 -2 -9 -8 0
-4 7 -27 11 -55 10 -26 -1 -49 3 -51 8 -3 7 -5 7 -5 0 -1 -6 -30 -9 -71 -8
-50 2 -70 -1 -70 -10 0 -8 -3 -8 -9 2 -6 8 -19 12 -35 9 -15 -3 -29 -1 -32 4
-4 6 -10 5 -14 -3 -7 -10 -11 -10 -24 0 -9 8 -16 10 -16 5 0 -10 -103 -10
-119 0 -6 4 -11 4 -11 -1 0 -4 -74 -6 -165 -3 -91 3 -165 1 -165 -3 0 -5 -4
-5 -10 -2 -14 8 -186 9 -199 1 -6 -4 -11 -4 -11 1 0 10 -52 9 -68 -1 -7 -4
-12 -4 -12 1 0 4 -95 8 -210 8 -126 0 -210 -4 -210 -9 0 -6 -5 -5 -12 2 -13
13 -52 -3 -43 -17 3 -5 -2 -12 -11 -15 -10 -4 -14 -14 -11 -26 3 -11 1 -18 -3
-15 -5 3 -11 -4 -15 -15 -3 -11 -11 -20 -16 -20 -6 0 -7 -4 -4 -10 3 -5 1 -10
-5 -10 -6 0 -8 -4 -5 -10 3 -5 2 -10 -4 -10 -6 0 -8 -7 -4 -15 3 -10 1 -15 -7
-13 -7 2 -14 -6 -16 -17 -1 -11 -9 -24 -17 -30 -15 -10 -15 -12 -24 -45 -3
-11 -10 -17 -17 -13 -6 3 -8 2 -3 -2 4 -5 0 -19 -8 -32 -9 -13 -13 -29 -8 -36
5 -9 4 -9 -8 0 -12 10 -15 8 -16 -9 -1 -12 -6 -24 -11 -27 -5 -3 -8 -14 -7
-23 2 -11 -2 -15 -11 -11 -9 3 -14 -2 -14 -16 0 -12 -5 -21 -11 -21 -5 0 -7
-4 -4 -10 3 -5 1 -10 -5 -10 -6 0 -8 -5 -5 -10 3 -6 -1 -13 -9 -16 -9 -3 -13
-10 -10 -15 3 -5 1 -9 -4 -9 -6 0 -13 -11 -16 -25 -4 -14 -11 -25 -17 -25 -6
0 -7 -4 -4 -10 3 -5 1 -10 -6 -10 -7 0 -9 -3 -6 -7 4 -3 -1 -12 -11 -20 -11
-10 -12 -12 -2 -8 10 4 9 2 -2 -8 -10 -8 -15 -17 -11 -20 3 -4 -1 -9 -10 -13
-9 -3 -19 -19 -22 -35 -4 -16 -10 -29 -15 -29 -4 0 -10 -9 -13 -21 -4 -14 -10
-18 -19 -13 -10 6 -10 5 -2 -7 9 -11 9 -17 -1 -26 -7 -6 -16 -9 -20 -5 -4 4
-6 2 -4 -3 3 -14 -19 -67 -37 -87 -9 -9 -17 -24 -18 -33 -1 -9 -7 -20 -12 -23
-5 -4 -10 -14 -12 -23 -2 -15 25 -17 293 -15 162 0 295 -3 295 -7 0 -5 5 -5
11 -1 21 13 121 7 130 -7 7 -11 9 -10 9 5 0 17 1 18 26 1 15 -9 23 -12 20 -6
-5 7 6 11 33 11 22 0 42 -5 44 -12 4 -9 6 -8 6 2 1 11 12 15 45 14 24 -1 48
-4 54 -8 6 -3 13 -2 17 4 4 6 10 8 15 5 16 -10 430 -10 430 -1 0 5 9 1 20 -9
20 -18 21 -18 14 0 -6 14 -4 16 6 10 7 -5 37 -7 67 -6 34 1 53 -2 53 -9 0 -6
8 -4 17 6 9 9 19 12 20 7 2 -5 17 -7 34 -5 20 3 34 0 40 -9 7 -11 9 -10 9 4 0
11 5 15 11 11 13 -8 206 -7 219 1 5 3 12 0 16 -6 4 -7 3 -9 -4 -5 -6 3 -13 2
-16 -3 -7 -10 20 -9 30 2 11 11 44 8 44 -4 0 -6 7 -4 15 5 17 16 45 12 46 -8
0 -6 4 -2 9 9 5 11 9 15 9 8 1 -8 10 -9 31 -3 17 5 32 5 35 0 3 -5 12 -7 20
-3 9 3 22 0 30 -7 9 -7 18 -10 22 -6 3 3 1 6 -5 6 -7 0 -12 4 -12 10 0 6 9 6
24 0 13 -5 27 -6 31 -2 3 3 10 0 15 -8 8 -13 10 -12 10 3 0 11 4 15 11 11 7
-4 25 -7 40 -6 16 0 29 -4 29 -9 0 -6 5 -7 10 -4 6 4 7 12 4 18 -5 9 -4 9 6 0
9 -8 19 -9 31 -3 11 6 20 6 23 1 3 -5 16 -7 28 -3 14 3 19 1 14 -6 -4 -6 5 -5
21 3 24 13 29 12 44 -1 13 -11 19 -12 24 -4 6 9 10 9 16 -1 7 -11 9 -9 10 6 0
11 3 15 5 9 3 -7 14 -9 26 -6 13 3 19 1 15 -5 -3 -5 0 -10 8 -10 8 0 12 4 9 9
-8 13 11 9 25 -4 10 -11 11 -9 5 6 -7 19 -6 19 16 3 17 -12 28 -13 42 -6 14 8
24 7 36 -3 13 -11 14 -11 8 1 -7 10 -3 12 14 6 17 -5 21 -4 15 5 -5 8 -4 11 3
6 6 -3 36 -7 66 -8 31 -1 56 -6 56 -11 0 -4 5 -5 10 -2 6 4 7 12 3 18 -4 7 6
4 21 -7 16 -10 25 -13 22 -7 -10 15 7 14 23 -2 11 -9 12 -9 7 0 -5 10 3 12 34
9 28 -3 38 -1 34 7 -3 7 1 4 9 -6 13 -16 15 -16 21 -1 6 15 8 15 28 -2 12 -11
18 -13 14 -6 -9 16 6 16 23 0 11 -10 13 -10 7 0 -5 8 0 12 14 12 14 0 19 -4
14 -12 -5 -8 -1 -8 10 1 15 13 19 13 27 0 5 -8 9 -9 9 -4 0 6 9 11 20 12 13 1
18 -2 13 -10 -5 -9 -3 -9 8 0 17 14 30 14 46 2 7 -7 14 -6 18 1 3 5 11 10 16
10 6 0 8 -4 5 -9 -7 -10 20 -9 30 2 13 13 46 8 38 -5 -6 -10 -4 -10 7 0 16 15
33 16 23 0 -5 -7 -3 -8 7 -2 21 13 39 14 39 1 0 -9 2 -9 8 0 8 12 36 12 48 0
14 -14 26 -7 14 8 -11 13 -10 14 6 8 10 -3 22 -11 26 -17 5 -7 8 -6 8 3 0 10
3 11 14 2 10 -9 16 -9 21 -1 4 7 11 8 18 1 17 -13 30 -11 45 8 7 9 12 12 11 6
-3 -23 2 -29 11 -15 9 13 11 13 20 0 5 -8 10 -10 10 -5 0 6 9 11 20 12 13 1
18 -3 14 -10 -3 -7 2 -3 10 7 14 18 16 18 16 3 0 -15 4 -16 20 -7 15 8 20 8
20 -2 0 -9 3 -9 10 2 9 13 10 13 10 0 0 -13 1 -13 10 0 9 13 10 13 10 0 0 -13
2 -13 9 -1 8 13 12 13 27 0 16 -13 17 -12 11 5 -6 15 -5 17 6 8 8 -7 17 -9 20
-5 4 3 7 0 7 -8 0 -11 2 -11 10 1 9 13 10 13 11 0 0 -10 3 -8 9 5 8 19 9 19 9
1 1 -15 4 -16 15 -7 11 9 15 9 19 -1 4 -11 6 -10 6 0 1 8 6 10 14 5 18 -11 38
-13 31 -2 -3 5 -1 9 5 9 5 0 12 -6 14 -12 4 -10 6 -10 6 0 1 6 6 12 12 12 5 0
7 -5 3 -12 -5 -7 -3 -8 7 -2 19 12 51 16 45 6 -3 -5 1 -9 9 -9 8 0 12 4 9 9
-3 4 2 8 10 8 9 0 16 -6 16 -12 0 -9 3 -9 9 1 5 8 18 12 30 8 12 -3 21 -2 21
1 0 4 15 7 32 6 18 -1 36 4 40 10 5 8 8 8 8 0 0 -11 28 -12 45 -2 6 3 26 7 45
9 19 2 38 8 42 14 5 6 8 5 8 -3 0 -7 5 -10 10 -7 6 4 8 10 5 15 -3 4 4 6 15 3
11 -3 28 1 37 8 15 12 16 12 8 -1 -7 -13 -6 -13 7 -2 13 10 17 10 21 0 4 -9 6
-7 6 4 1 11 7 15 20 11 10 -2 25 3 35 12 12 12 16 13 16 3 0 -10 3 -9 10 2 5
8 10 11 10 6 0 -5 8 -2 17 5 14 12 16 12 9 -1 -7 -13 -6 -13 6 0 7 8 24 16 38
18 13 1 27 6 30 11 3 4 13 7 22 6 9 -2 19 4 22 12 3 8 11 11 17 8 5 -4 18 0
27 7 29 25 46 33 37 17 -5 -8 0 -7 12 3 11 10 25 18 32 18 7 0 10 4 7 9 -4 5
3 7 14 4 15 -4 20 0 20 13 0 14 2 16 9 6 6 -11 10 -10 15 3 3 10 12 15 21 11
10 -3 15 1 15 11 0 9 3 13 6 10 11 -11 45 13 38 26 -5 9 -4 9 5 1 10 -9 19 -6
38 12 14 13 28 22 32 20 9 -6 31 21 23 29 -4 4 2 5 13 3 13 -2 19 2 17 10 -1
8 2 11 8 7 5 -3 13 0 16 9 3 8 12 12 20 9 9 -3 14 1 14 13 0 9 3 14 6 11 4 -3
15 4 25 17 10 13 32 29 48 36 21 8 28 17 24 28 -5 12 -2 14 11 9 9 -4 15 -3
13 1 -3 4 1 13 9 20 8 7 14 10 14 7 0 -4 7 1 16 9 8 9 12 20 9 26 -4 6 -3 10
2 9 20 -3 34 2 28 11 -3 6 1 10 10 10 9 0 14 4 10 9 -3 6 4 15 15 21 11 6 18
15 15 21 -4 5 3 9 15 9 12 0 19 3 16 8 -8 13 22 45 35 36 8 -4 10 -3 5 5 -5 7
2 21 16 34 14 13 23 28 20 35 -2 7 3 12 12 12 9 0 16 5 16 11 0 5 -6 7 -12 3
-8 -4 -10 -3 -5 2 5 5 14 9 20 9 7 1 11 6 10 13 -2 7 3 12 11 12 10 0 13 7 11
20 -2 11 0 18 4 15 5 -2 11 5 14 16 3 12 10 18 17 14 6 -3 9 -3 8 2 -4 13 33
83 44 83 5 0 7 4 4 9 -3 5 1 14 9 21 8 7 15 23 15 36 0 12 5 26 12 30 7 5 8 3
3 -6 -6 -9 -4 -11 4 -6 7 5 10 14 7 21 -3 8 5 26 17 41 13 17 16 25 7 20 -11
-5 -11 -4 1 6 9 7 14 19 12 26 -3 6 1 12 8 12 7 0 9 3 6 7 -4 3 -2 12 4 20 6
7 9 13 5 13 -3 0 3 16 14 36 11 19 16 33 10 29 -6 -3 -7 0 -4 9 3 9 10 16 16
16 5 0 7 4 4 8 -3 5 1 20 9 35 8 15 12 36 10 47 -2 11 1 20 7 20 5 0 8 7 4 15
-3 8 -1 15 4 15 5 0 7 9 5 20 -2 10 5 30 15 43 13 17 16 27 9 34 -7 7 -8 17
-1 30 7 12 7 25 0 37 -8 14 -7 17 1 12 11 -7 16 27 13 82 0 12 3 20 8 17 9 -6
8 14 -2 30 -4 6 -3 17 3 25 11 19 12 43 1 36 -5 -3 -9 1 -9 8 0 8 6 12 13 9
17 -6 10 37 -8 49 -10 6 -8 8 4 8 14 0 16 5 9 23 -14 35 -14 39 1 48 10 7 10
9 1 9 -7 0 -13 5 -13 11 0 5 5 7 12 3 7 -5 8 -3 3 7 -5 7 -8 29 -7 49 2 26 0
31 -8 20 -5 -8 -10 -10 -10 -4 0 6 3 14 7 18 9 9 11 46 3 46 -4 0 -5 16 -3 36
3 27 0 34 -9 28 -10 -5 -10 -4 -1 6 10 11 9 16 -5 27 -16 14 -16 14 1 9 15 -5
16 -3 7 14 -6 11 -8 25 -5 30 3 6 2 10 -3 10 -5 0 -8 12 -7 28 2 34 -4 54 -16
47 -4 -3 -6 8 -4 25 2 17 -2 36 -11 44 -9 10 -10 16 -3 18 8 3 7 9 -4 19 -11
11 -12 20 -5 34 8 13 7 16 -1 11 -6 -4 -12 0 -13 11 0 10 -2 24 -2 31 -1 7 -7
17 -15 21 -7 5 -11 13 -7 19 3 6 2 13 -4 17 -6 4 -8 11 -5 16 4 5 1 9 -4 9 -6
0 -10 3 -10 8 4 24 -2 42 -13 36 -8 -5 -9 -2 -5 9 3 9 2 19 -4 23 -6 3 -8 13
-5 21 3 8 1 11 -4 8 -6 -3 -10 1 -10 9 0 9 -4 16 -8 16 -4 0 -9 10 -9 22 -1
13 -7 24 -13 26 -5 2 -10 12 -10 22 0 9 -7 23 -15 30 -9 7 -13 15 -10 18 2 3
-3 11 -13 18 -9 7 -18 17 -18 23 -1 6 -2 18 -3 27 0 8 -5 12 -11 9 -5 -3 -10
1 -10 9 0 9 -4 16 -10 16 -5 0 -10 9 -10 21 0 11 -4 17 -10 14 -5 -3 -10 1
-10 10 0 8 -6 18 -14 21 -9 3 -12 12 -9 21 4 11 2 14 -5 9 -11 -6 -17 5 -13
26 0 5 -5 7 -12 5 -6 -1 -11 6 -11 15 1 10 -2 15 -7 12 -5 -3 -9 3 -10 13 0
13 -2 14 -6 4 -4 -9 -10 -3 -19 18 -8 18 -23 35 -34 38 -11 3 -20 14 -20 24 0
11 -7 19 -15 19 -9 0 -19 8 -22 18 -10 25 -29 42 -50 42 -12 0 -14 3 -6 8 9 6
7 12 -9 22 -12 8 -30 23 -40 33 -10 9 -23 17 -29 17 -5 0 -7 5 -4 10 3 6 -2
10 -12 10 -14 0 -15 2 -4 9 11 7 9 10 -10 13 -13 2 -23 9 -21 16 1 8 -2 11 -8
7 -5 -3 -10 -1 -10 4 0 6 -7 11 -15 11 -9 0 -18 7 -22 16 -3 8 -12 13 -20 10
-8 -3 -12 -2 -9 3 3 4 -6 14 -19 21 -13 7 -22 18 -18 23 3 6 1 7 -5 3 -6 -3
-17 1 -25 9 -9 8 -21 15 -27 15 -6 0 -18 6 -25 13 -26 22 -41 32 -55 35 -8 2
-17 8 -18 13 -2 5 -8 7 -13 3 -5 -3 -9 3 -9 12 0 14 -3 15 -12 6 -8 -8 -18 -5
-40 13 -16 14 -36 25 -44 25 -9 0 -13 4 -10 9 4 5 -3 7 -14 4 -12 -3 -20 0
-20 6 0 7 -4 9 -10 6 -5 -3 -10 -1 -10 5 0 6 -4 8 -10 5 -5 -3 -10 -1 -10 5 0
6 -4 8 -10 5 -5 -3 -10 -1 -10 6 0 8 -5 8 -17 -2 -10 -7 -15 -9 -10 -4 8 10
-45 35 -75 35 -10 0 -17 4 -14 9 3 5 -7 8 -23 7 -17 -1 -28 1 -26 4 2 3 -8 10
-21 17 -13 6 -22 7 -18 2 3 -5 -2 -9 -10 -9 -10 0 -13 6 -9 18 6 15 5 15 -11
3 -10 -9 -20 -11 -24 -5 -8 10 -15 12 -65 18 -18 3 -32 6 -32 7 0 1 -13 3 -30
4 -16 1 -40 5 -52 9 -30 10 -91 17 -131 16 -24 0 -31 3 -26 11 5 8 3 9 -7 3
-17 -10 -71 -15 -65 -5 6 9 -36 7 -52 -3 -7 -4 -12 -2 -12 5 0 9 -3 9 -14 0
-10 -8 -16 -9 -21 -1 -4 7 -12 7 -26 0 -14 -8 -19 -7 -19 1 0 8 -5 7 -17 -2
-18 -15 -23 -16 -32 0 -4 6 -20 7 -44 2 -22 -6 -37 -5 -37 0 0 6 -10 5 -21 -2
-16 -8 -20 -8 -14 1 6 9 2 9 -14 1 -15 -8 -21 -9 -21 -1 0 7 -5 8 -12 3 -7 -4
-21 -6 -32 -4 -12 2 -16 -2 -11 -11 3 -7 -1 -4 -9 6 -12 15 -16 16 -16 5 0
-10 -3 -10 -8 -2 -5 8 -21 9 -52 3 -29 -5 -47 -5 -51 2 -4 6 -9 5 -12 -3 -5
-12 -6 -12 -6 0 -1 11 -4 11 -18 0 -15 -12 -16 -12 -8 1 8 13 7 13 -9 1 -15
-13 -19 -13 -27 0 -7 12 -9 12 -9 -1 0 -9 -3 -11 -8 -5 -9 13 -35 18 -27 5 3
-5 2 -10 -4 -10 -5 0 -13 5 -16 10 -4 6 -12 7 -18 3 -17 -10 -47 -11 -47 -1 0
5 -6 6 -12 1 -7 -4 -21 -6 -32 -4 -12 2 -16 -2 -11 -11 3 -7 -1 -4 -9 6 -10
13 -16 15 -16 7 0 -10 -3 -11 -13 -2 -8 6 -17 8 -21 4 -10 -10 -46 -11 -46 -1
0 5 -6 6 -12 1 -7 -4 -21 -6 -32 -4 -12 2 -16 -2 -11 -11 3 -7 -1 -4 -9 6 -10
13 -16 15 -16 7 0 -10 -3 -11 -13 -2 -8 6 -17 8 -21 4 -10 -10 -46 -11 -46 -1
0 5 -6 6 -12 1 -7 -4 -21 -6 -32 -4 -12 2 -16 -2 -11 -11 3 -7 -1 -4 -9 6 -10
13 -16 15 -16 7 0 -10 -3 -11 -13 -2 -8 6 -17 8 -21 4 -10 -10 -46 -11 -46 -1
0 5 -6 6 -12 1 -7 -4 -21 -6 -32 -4 -12 2 -16 -2 -11 -11 3 -7 -1 -4 -9 6 -10
13 -16 15 -16 7 0 -10 -3 -11 -13 -2 -8 6 -17 8 -21 4 -10 -10 -46 -11 -46 -1
0 5 -6 6 -12 1 -7 -4 -21 -6 -32 -4 -12 2 -16 -2 -11 -11 3 -7 -1 -4 -9 6 -10
13 -16 15 -16 7 0 -10 -3 -11 -13 -2 -8 6 -17 8 -21 4 -10 -10 -46 -11 -46 -1
0 5 -6 6 -12 1 -7 -4 -21 -6 -32 -4 -12 2 -16 -2 -11 -11 3 -7 -1 -4 -9 6 -10
13 -16 15 -16 7 0 -10 -3 -11 -13 -2 -8 6 -17 8 -21 4 -10 -10 -46 -11 -46 -1
0 5 -6 6 -12 1 -7 -4 -21 -6 -32 -4 -12 2 -16 -2 -11 -11 3 -7 -1 -4 -9 6 -10
13 -16 15 -16 7 0 -10 -3 -11 -13 -2 -8 6 -17 8 -21 4 -10 -10 -46 -11 -46 -1
0 5 -6 6 -12 1 -7 -4 -21 -6 -32 -4 -12 2 -16 -2 -11 -11 3 -7 1 -6 -7 3 -9
11 -21 13 -40 8 -17 -4 -28 -3 -31 4 -3 9 -9 8 -20 -2 -12 -9 -17 -10 -17 -2
0 9 -5 9 -20 1 -11 -6 -20 -8 -20 -4 0 3 -6 1 -14 -5 -11 -9 -16 -9 -22 0 -4
8 -3 9 4 5 7 -4 12 -2 12 3 0 14 -17 14 -25 0z m3975 -2343 c0 -3 -4 -8 -10
-11 -5 -3 -10 -1 -10 4 0 6 5 11 10 11 6 0 10 -2 10 -4z m-3350 -1542 c0 -8
-19 -13 -24 -6 -3 5 1 9 9 9 8 0 15 -2 15 -3z"/>
<path d="M890 4460 c0 -5 5 -10 11 -10 5 0 7 5 4 10 -3 6 -8 10 -11 10 -2 0
-4 -4 -4 -10z"/>
</g>
</svg>
